<svg width="131" height="131" viewBox="0 0 131 131" fill="none" xmlns="http://www.w3.org/2000/svg">
<path fill-rule="evenodd" clip-rule="evenodd" d="M69.3243 30.0879L65.394 26.1575L61.4637 30.0879L69.3243 30.0879ZM57.7644 33.7871L73.0235 33.7871L76.7229 37.4865H54.065L57.7644 33.7871ZM50.3658 41.1857L46.6666 44.885L84.1214 44.885L80.4222 41.1857L50.3658 41.1857ZM87.8206 48.5842L42.9673 48.5842L39.2683 52.2832H91.5197L87.8206 48.5842ZM95.2189 55.9825L35.569 55.9825L31.8696 59.6819L98.9183 59.6819L95.2189 55.9825ZM102.618 63.3811L28.1704 63.3811L26.1577 65.3938L27.844 67.0801L102.944 67.0801L104.63 65.3938L102.618 63.3811ZM99.2447 70.7793L31.5432 70.7793L35.2425 74.4786L95.5454 74.4786L99.2447 70.7793ZM91.8462 78.1778L38.9418 78.1778L42.6412 81.8772L88.1468 81.8772L91.8462 78.1778ZM84.4476 85.5765L46.3404 85.5765L50.0396 89.2757L80.7483 89.2757L84.4476 85.5765ZM77.0491 92.9749L53.7389 92.9749L57.4379 96.674L73.3501 96.674L77.0491 92.9749ZM69.6508 100.373L61.1371 100.373L65.394 104.63L69.6508 100.373Z" fill="#FFE297"/>
<circle cx="65.5" cy="62.5" r="55" stroke="#333333" stroke-width="3" stroke-dasharray="5 5"/>
</svg>
