<svg width="99" height="145" viewBox="0 0 99 145" fill="none" xmlns="http://www.w3.org/2000/svg">
<path d="M84.0888 49.2454C89.3325 46.6345 93.5402 42.3283 96.0292 37.0256C98.5182 31.7229 99.1425 25.7348 97.8007 20.0327C96.4589 14.3306 93.2299 9.24924 88.6374 5.61289C84.0449 1.97654 78.3585 -0.00139035 72.5007 7.3326e-07H25.9908C20.1331 -0.00139035 14.4466 1.97654 9.85417 5.61289C5.2617 9.24924 2.03264 14.3306 0.690872 20.0327C-0.650893 25.7348 -0.0266371 31.7229 2.46236 37.0256C4.95135 42.3283 9.15905 46.6345 14.4028 49.2454C10.0766 51.3982 6.43667 54.7152 3.8923 58.8234C1.34794 62.9315 1.04545e-06 67.668 3.58665e-05 72.5003C7.06875e-05 77.3325 1.34808 82.069 3.8925 86.1771C6.43693 90.2853 10.0769 93.6022 14.4031 95.7549C10.2599 97.8199 6.74352 100.954 4.21756 104.833C1.6916 108.713 0.24777 113.197 0.0353896 117.821C-0.176991 122.445 0.849782 127.043 3.00953 131.137C5.16928 135.232 8.38359 138.675 12.3201 141.111C16.2566 143.547 20.7723 144.887 25.4004 144.993C30.0285 145.099 34.6008 143.967 38.6446 141.713C42.6884 139.46 46.0568 136.167 48.4016 132.176C50.7463 128.184 51.9823 123.639 51.9817 119.01V88.4243C54.3738 91.509 57.4303 94.0149 60.9241 95.756C64.4179 97.497 68.2591 98.4284 72.1623 98.4809C76.0654 98.5333 79.9303 97.7056 83.4696 96.0591C87.0089 94.4127 90.1317 91.9898 92.606 88.9706C95.0802 85.9514 96.8423 82.4134 97.7613 78.6196C98.6803 74.8258 98.7326 70.8736 97.9142 67.0568C97.0959 63.24 95.428 59.6567 93.0345 56.5731C90.6409 53.4895 87.5833 50.9849 84.0888 49.2454ZM93.0198 25.9908C93.0136 31.4286 90.8517 36.6421 87.0078 40.4884C83.1639 44.3347 77.9518 46.4999 72.5141 46.5095L72.5007 46.5092L72.4743 46.5099L51.9817 46.5092V5.47175H72.5007C77.9408 5.47792 83.1563 7.64172 87.0031 11.4885C90.8498 15.3352 93.0136 20.5507 93.0198 25.9908ZM56.5761 51.9811C54.86 53.3161 53.3166 54.8595 51.9817 56.5757V51.981L56.5761 51.9811ZM5.47179 25.9908C5.47795 20.5507 7.64176 15.3352 11.4885 11.4885C15.3352 7.64172 20.5507 5.47792 25.9908 5.47175H46.5099V46.5092H25.9908L25.9779 46.5095C20.5401 46.4999 15.3279 44.3347 11.484 40.4884C7.64007 36.6421 5.47801 31.4286 5.47179 25.9908ZM25.9908 139.528C23.2949 139.53 20.6249 139.001 18.1335 137.971C15.6421 136.941 13.3782 135.43 11.4711 133.524C9.56397 131.619 8.05108 129.356 7.01887 126.866C5.98666 124.375 5.45537 121.705 5.45537 119.01C5.45537 116.314 5.98666 113.644 7.01887 111.153C8.05108 108.663 9.56397 106.4 11.4711 104.495C13.3782 102.589 15.6421 101.078 18.1335 100.048C20.6249 99.0177 23.2949 98.4886 25.9908 98.4908L46.5099 98.4902V119.01C46.5037 124.45 44.3399 129.665 40.4932 133.512C36.6464 137.358 31.4309 139.522 25.9908 139.528ZM46.5099 93.0184L25.9908 93.0191C20.5506 93.0182 15.3334 90.8568 11.4863 87.0103C7.63918 83.1638 5.47709 77.9469 5.47536 72.5067C5.47364 67.0664 7.63243 61.8482 11.4771 57.9992C15.3218 54.1502 20.5376 51.9856 25.9779 51.9813L25.9908 51.9816L46.5099 51.981V93.0184ZM72.5007 93.0191C67.0622 93.0173 61.8469 90.8566 58.0006 87.0116C54.1544 83.1667 51.992 77.952 51.9885 72.5135C51.985 67.075 54.1407 61.8576 57.982 58.0077C61.8233 54.1578 67.0358 51.9903 72.4743 51.9816H72.5007L72.5137 51.9813C77.9523 51.9882 83.1657 54.1539 87.0083 58.0026C90.8509 61.8513 93.0084 67.0681 93.0067 72.5067C93.0049 77.9452 90.8441 83.1607 86.9991 87.0069C83.154 90.8532 77.9393 93.0156 72.5007 93.0191Z" fill="#333333"/>
</svg>
