<svg width="125" height="125" viewBox="0 0 125 125" fill="none" xmlns="http://www.w3.org/2000/svg">
<path d="M122.642 56.9304L68.0655 2.35764C64.9247 -0.785881 59.8267 -0.785881 56.6818 2.35764L45.349 13.6905L59.7252 28.0668C63.0663 26.938 66.8969 27.6951 69.5604 30.3586C72.2362 33.0385 72.9878 36.9021 71.8317 40.2541L85.6867 54.1092C89.0387 52.9544 92.9064 53.7019 95.5836 56.3832C99.3251 60.1233 99.3251 66.1854 95.5836 69.9283C91.8408 73.6712 85.7786 73.6712 82.0344 69.9283C79.22 67.1112 78.5247 62.9775 79.9497 59.5103L67.0286 46.5892L67.0272 80.5919C67.9393 81.0445 68.8006 81.6466 69.5604 82.4037C73.3019 86.1438 73.3019 92.2059 69.5604 95.9515C65.8175 99.6931 59.7527 99.6931 56.0153 95.9515C52.2738 92.2059 52.2738 86.1438 56.0153 82.4037C56.9397 81.4806 58.0095 80.7825 59.1506 80.3135V45.9939C58.0095 45.5276 56.9411 44.8336 56.0153 43.9037C53.1804 41.0729 52.4987 36.9131 53.9511 33.4322L39.7806 19.2589L2.35867 56.6781C-0.786224 59.8243 -0.786224 64.9223 2.35867 68.0658L56.9356 122.64C60.0777 125.783 65.1743 125.783 68.3206 122.64L122.642 68.3195C125.786 65.1746 125.786 60.074 122.642 56.9304Z" fill="#333333"/>
</svg>
