<svg width="125" height="75" viewBox="0 0 125 75" fill="none" xmlns="http://www.w3.org/2000/svg">
<path d="M62.5 0C45.8125 0 35.4375 8.3125 31.25 25C37.5 16.6875 44.8125 13.5625 53.125 15.625C57.875 16.8125 61.3125 20.25 65.0625 24.0625C71.1875 30.3125 78.125 37.5 93.75 37.5C110.438 37.5 120.812 29.1875 125 12.5C118.75 20.8125 111.438 23.9375 103.125 21.875C98.375 20.6875 95 17.25 91.1875 13.4375C85.0625 7.1875 78.125 0 62.5 0ZM31.25 37.5C14.5625 37.5 4.1875 45.8125 0 62.5C6.25 54.1875 13.5625 51.0625 21.875 53.125C26.625 54.3125 30 57.75 33.8125 61.5625C39.9375 67.8125 46.875 75 62.5 75C79.1875 75 89.5625 66.6875 93.75 50C87.5 58.3125 80.1875 61.4375 71.875 59.375C67.125 58.1875 63.75 54.75 59.9375 50.9375C53.8125 44.6875 46.875 37.5 31.25 37.5Z" fill="#333333"/>
</svg>
