<svg width="125" height="125" viewBox="0 0 125 125" fill="none" xmlns="http://www.w3.org/2000/svg">
<path d="M13.5333 40.6754L39.1129 110.736C21.2198 102.067 8.89617 83.7198 8.89617 62.5C8.89617 54.7127 10.5595 47.3538 13.5333 40.6754ZM98.6895 59.8034C98.6895 53.1754 96.3206 48.5887 94.2792 45.0101C91.5575 40.5998 89.0121 36.8448 89.0121 32.4345C89.0121 27.495 92.7419 22.9083 98.0091 22.9083C98.2359 22.9083 98.4627 22.9335 98.7147 22.9587C89.1633 14.2137 76.4617 8.87097 62.5 8.87097C43.7752 8.87097 27.2933 18.4728 17.6915 33.0393C18.9516 33.0897 20.1361 33.1149 21.1442 33.1149C26.7389 33.1149 35.4335 32.4345 35.4335 32.4345C38.3317 32.2581 38.6593 36.5171 35.7863 36.8448C35.7863 36.8448 32.8881 37.1724 29.6623 37.3488L49.1935 95.4133L60.9375 60.2319L52.5958 37.3488C49.6976 37.1724 46.9758 36.8448 46.9758 36.8448C44.0776 36.6683 44.4304 32.2581 47.3034 32.4345C47.3034 32.4345 56.1492 33.1149 61.4163 33.1149C67.0111 33.1149 75.7056 32.4345 75.7056 32.4345C78.6038 32.2581 78.9314 36.5171 76.0585 36.8448C76.0585 36.8448 73.1603 37.1724 69.9345 37.3488L89.3145 94.9849L94.6573 77.1169C96.9254 69.7077 98.6895 64.3901 98.6895 59.8034ZM63.4325 67.1875L47.3538 113.936C52.1673 115.348 57.2329 116.129 62.5 116.129C68.75 116.129 74.7228 115.045 80.2923 113.08C80.1411 112.853 80.0151 112.601 79.9143 112.349L63.4325 67.1875ZM109.551 36.7692C109.778 38.4829 109.904 40.2974 109.904 42.2883C109.904 47.7319 108.896 53.8306 105.822 61.4919L89.4405 108.846C105.393 99.5464 116.104 82.2833 116.104 62.5C116.104 53.1754 113.735 44.4052 109.551 36.7692ZM125 62.5C125 96.9758 96.9506 125 62.5 125C28.0242 125 0 96.9506 0 62.5C0 28.0242 28.0242 0 62.5 0C96.9506 0 125 28.0242 125 62.5ZM122.127 62.5C122.127 29.6119 95.3629 2.87298 62.5 2.87298C29.6119 2.87298 2.87298 29.6119 2.87298 62.5C2.87298 95.3881 29.6371 122.127 62.5 122.127C95.3881 122.127 122.127 95.3881 122.127 62.5Z" fill="black"/>
</svg>
